<?xml version="1.0" encoding="utf-8"?>
<!-- Generator: Adobe Illustrator 28.1.0, SVG Export Plug-In . SVG Version: 6.00 Build 0)  -->
<svg version="1.1" id="Layer_1" xmlns="http://www.w3.org/2000/svg" xmlns:xlink="http://www.w3.org/1999/xlink" x="0px" y="0px"
	 viewBox="7.5 7.5 35 35" style="enable-background:new 0 0 50 50;" xml:space="preserve">
<style type="text/css">
	.st0{fill:#0C2340;}
	.st1{fill:#1A428A;}
	.st2{fill:#DDC9A3;}
</style>
<path class="st0" d="M6,6h38v38H6V6z"/>
<path class="st1" d="M19.2,18l-2,13.3h2.5l0.4-2.4h1.1l0.4,2.4h2.5L22,18H19.2z M20.8,26.5h-0.4c0-0.2,0.1-0.6,0.2-1.2L20.8,26.5z"
	/>
<path class="st1" d="M11,31.3h5.6v-2.6h-3v-3.1h1.8V23h-1.8v-2.4h3V18H11V31.3z"/>
<path class="st1" d="M26.1,18l-1.5,1.5v5l1.5,1.5h2.3v2.8h-1.2v-1.6h-2.6v2.7l1.5,1.5h3.4l1.5-1.5v-5l-1.5-1.5h-2.3v-2.8h1.2v1.8H31
	v-2.9L29.5,18H26.1z"/>
<path class="st1" d="M31.7,18v2.6h2.4v10.7h2.6V20.6H39V18H31.7z"/>
<path class="st2" d="M21.8,18.3h-2.3L17.6,31h1.9l0.4-2.4h1.6l0.4,2.4h1.9L21.8,18.3z M20.6,23.3l0.6,3.6h-1.1
	C20.1,26.8,20.6,23.3,20.6,23.3z"/>
<path class="st2" d="M11.3,18.3V31h5V29h-3v-3.8h1.8v-1.9h-1.8v-3.1h3v-1.9H11.3z"/>
<path class="st2" d="M29.4,31l1.3-1.3V25l-1.3-1.3h-2.5v-3.4h1.8v1.8h2v-2.5l-1.3-1.3h-3.2L25,19.6v4.7l1.3,1.3h2.5V29h-1.8v-1.6H25
	v2.3l1.3,1.3H29.4z"/>
<path class="st2" d="M36.3,31V20.3h2.3v-1.9H32v1.9h2.4V31H36.3z"/>
</svg>
