<?xml version="1.0" encoding="utf-8"?>
<!-- Generator: Adobe Illustrator 28.1.0, SVG Export Plug-In . SVG Version: 6.00 Build 0)  -->
<svg version="1.1" id="Layer_1" xmlns="http://www.w3.org/2000/svg" xmlns:xlink="http://www.w3.org/1999/xlink" x="0px" y="0px"
	 viewBox="7.5 7.5 35 35" style="enable-background:new 0 0 50 50;" xml:space="preserve">
<style type="text/css">
	.st0{fill:#8A2433;}
	.st1{fill:#CE0E2D;}
	.st2{fill:#DDC9A3;}
</style>
<path class="st0" d="M6,6h38v38H6V6z"/>
<path class="st1" d="M20.1,31.1h5.1v-2.4h-2.7v-2.8h1.6v-2.3h-1.6v-2.2h2.7V19h-5.1V31.1z"/>
<path class="st1" d="M16.5,22l-0.6-3h-1.5l-0.6,3.2L13.3,19H11l1.7,12.1h1.8l0.6-3.2l0.6,3.2h1.7l1.8-11.6l0.1-0.5h-2.5L16.5,22z"/>
<path class="st1" d="M27.3,19l-1.3,1.3v4.5l1.3,1.3h2.1v2.5h-1.1v-1.5h-2.4v2.5l1.3,1.3h3.1l1.3-1.3v-4.5l-1.3-1.3h-2.1v-2.5h1.1V23
	h2.4v-2.7L30.4,19H27.3z"/>
<path class="st1" d="M32.4,19v2.4h2.1v9.7h2.4v-9.7H39V19H32.4z"/>
<path class="st2" d="M20.4,19.3v11.5h4.5V29h-2.7v-3.4h1.6v-1.7h-1.6v-2.8h2.7v-1.8H20.4z"/>
<path class="st2" d="M17.2,19.3l-0.6,4.5l-0.9-4.5h-1l-0.8,4.6L13,19.3h-1.7L13,30.7l0,0.1h1.3l0.9-4.4l0.9,4.4h1.2l1.8-11.3l0-0.2
	H17.2z"/>
<path class="st2" d="M30.3,30.8l1.1-1.1v-4.3l-1.1-1.2H28v-3.1h1.7v1.6h1.8v-2.2l-1.2-1.2h-2.9l-1.2,1.2v4.3l1.2,1.2h2.3V29H28v-1.5
	h-1.8v2.1l1.2,1.2H30.3z"/>
<path class="st2" d="M36.6,30.8v-9.7h2.1v-1.8h-6v1.8h2.1v9.7H36.6z"/>
</svg>
